<?xml version="1.0" encoding="UTF-8"?>
<svg xmlns="http://www.w3.org/2000/svg" width="800" height="3300" viewBox="0 0 800 3300" font-family="Pretendard, 'Apple SD Gothic Neo', 'Malgun Gothic', sans-serif">
  <defs>
    <style><![CDATA[
      .h0   { font-size:44px; font-weight:900; fill:#0f172a; }
      .h1   { font-size:30px; font-weight:800; fill:#0f172a; }
      .h2   { font-size:24px; font-weight:800; fill:#0f172a; }
      .h3   { font-size:20px; font-weight:700; fill:#0f172a; }
      .lead { font-size:18px; font-weight:700; fill:#0f172a; }
      .body { font-size:16px;                  fill:#0f172a; }
      .sub  { font-size:14px;                  fill:#475569; }
      .step { font-size:22px; font-weight:900; fill:#ffffff; }
      .warn { fill:#dc2626;   font-weight:800; }
      .good { fill:#15803d;   font-weight:800; }
      .pill { font-size:16px; font-weight:700; fill:#0f172a; }
    ]]></style>
    <linearGradient id="g1" x1="0" y1="0" x2="1" y2="0">
      <stop offset="0" stop-color="#6366f1"/><stop offset="1" stop-color="#8b5cf6"/>
    </linearGradient>
  </defs>

  <rect width="800" height="3300" fill="#ffffff"/>

  <!-- HEADER -->
  <rect x="0" y="0" width="800" height="155" fill="#fde047"/>
  <rect x="0" y="155" width="800" height="5" fill="#0f172a"/>
  <text x="400" y="65"  class="h0" text-anchor="middle">CoCoBot 생성 위저드</text>
  <text x="400" y="105" class="h2" text-anchor="middle">— 전체 플로우 v3 —</text>
  <text x="400" y="135" class="body" text-anchor="middle">2026-04-21 · 8단계 · 로그인 필수 · 위저드 1 페르소나</text>

  <!-- 입장 정책 -->
  <g transform="translate(24,185)">
    <rect width="752" height="120" rx="10" fill="#fee2e2" stroke="#dc2626" stroke-width="2.5"/>
    <text x="16" y="32" class="h2">🔒 위저드 진입 정책 — 로그인 필수</text>
    <text x="16" y="62" class="body">• 위저드는 처음부터 로그인 사용자 전용 (Step 1 진입 시 로그인 체크)</text>
    <text x="16" y="86" class="body">• 미로그인 → 로그인 페이지로 리다이렉트</text>
    <text x="16" y="110" class="body good">• 게스트는 별도 "🎮 체험하기" 메뉴에서 데모 봇으로 미리 경험 가능</text>
  </g>

  <!-- 3단계 자동 저장 -->
  <g transform="translate(24,325)">
    <rect width="752" height="220" rx="10" fill="#f1f5f9" stroke="#cbd5e1" stroke-width="1.5"/>
    <text x="16" y="32" class="h2">💾 3단계 자동 저장 — 입력 보호 시스템</text>
    <text x="16" y="55" class="sub">새로고침해도 입력값을 안전하게 보관합니다</text>

    <line x1="16" y1="68" x2="736" y2="68" stroke="#cbd5e1" stroke-width="1"/>

    <text x="16"  y="92"  class="body" font-weight="700">① sessionStorage</text>
    <text x="200" y="92"  class="body">24시간 보관</text>
    <text x="370" y="92"  class="body">텍스트 입력값 (이름·소개 등)</text>

    <text x="16"  y="120" class="body" font-weight="700">② IndexedDB</text>
    <text x="200" y="120" class="body">임시</text>
    <text x="370" y="120" class="body">음성 녹음 · 이미지 · 아바타</text>

    <text x="16"  y="148" class="body" font-weight="700">③ Supabase (DB)</text>
    <text x="200" y="148" class="body">영구</text>
    <text x="370" y="148" class="body">Step 5 통과 후 최종 저장</text>

    <line x1="16" y1="162" x2="736" y2="162" stroke="#cbd5e1" stroke-width="1"/>
    <text x="16" y="184" class="body good">→ 새로고침 OK · 단계 이동 시 자동 백업 · DB 낭비 없음</text>
    <text x="16" y="206" class="sub">예: 12:00 입력 → 12:10 새로고침 → 입력값 그대로 복원 → 계속 진행</text>
  </g>

  <!-- STEP 1 -->
  <g transform="translate(24,575)">
    <rect width="752" height="160" rx="12" fill="#ffffff" stroke="#cbd5e1" stroke-width="2"/>
    <rect width="752" height="44" rx="12" fill="url(#g1)"/>
    <rect y="32" width="752" height="12" fill="url(#g1)"/>
    <text x="16" y="30" class="step">① 기본 정보</text>
    <text x="16" y="76" class="lead">코코봇 이름 · 한 줄 소개 · URL</text>
    <text x="16" y="103" class="body">• 음성 + 텍스트 동시 입력</text>
    <text x="16" y="124" class="body">• 한글 → 영문 URL 자동 변환</text>
    <text x="16" y="148" class="body">• 사용자명 중복 체크</text>
  </g>
  <text x="400" y="758" class="h2" text-anchor="middle" fill="#475569">↓</text>

  <!-- STEP 2 -->
  <g transform="translate(24,770)">
    <rect width="752" height="190" rx="12" fill="#ffffff" stroke="#cbd5e1" stroke-width="2"/>
    <rect width="752" height="44" rx="12" fill="url(#g1)"/>
    <rect y="32" width="752" height="12" fill="url(#g1)"/>
    <text x="16" y="30" class="step">② 페르소나 선택 (1개 필수)</text>
    <text x="16" y="76" class="lead">아바타형 또는 도우미형 1개</text>
    <text x="16" y="103" class="body">• 7-preset 접힘형 카드</text>
    <text x="16" y="124" class="body">• AI 모델 + IQ↔EQ 슬라이더</text>
    <text x="16" y="148" class="body warn">★ 위저드 1개 / 추가는 마이페이지</text>
    <text x="16" y="172" class="body">한도: 아바타 5 + 도우미 5 = 10</text>
  </g>
  <text x="400" y="983" class="h2" text-anchor="middle" fill="#475569">↓</text>

  <!-- STEP 3 -->
  <g transform="translate(24,995)">
    <rect width="752" height="160" rx="12" fill="#ffffff" stroke="#cbd5e1" stroke-width="2"/>
    <rect width="752" height="44" rx="12" fill="url(#g1)"/>
    <rect y="32" width="752" height="12" fill="url(#g1)"/>
    <text x="16" y="30" class="step">③ 인터뷰</text>
    <text x="16" y="76" class="lead">자기소개 (음성 + 텍스트 동시)</text>
    <text x="16" y="103" class="body">• Web Speech API · 3분 타이머</text>
    <text x="16" y="124" class="body">• 텍스트 2000자 카운터</text>
    <text x="16" y="148" class="body warn">현재 BUG: 탭 토글 → 동시 입력으로 수정</text>
  </g>
  <text x="400" y="1178" class="h2" text-anchor="middle" fill="#475569">↓</text>

  <!-- STEP 4 -->
  <g transform="translate(24,1190)">
    <rect width="752" height="130" rx="12" fill="#ffffff" stroke="#cbd5e1" stroke-width="2"/>
    <rect width="752" height="44" rx="12" fill="url(#g1)"/>
    <rect y="32" width="752" height="12" fill="url(#g1)"/>
    <text x="16" y="30" class="step">④ AI 분석</text>
    <text x="16" y="76" class="lead">인터뷰 → FAQ 자동 생성</text>
    <text x="16" y="103" class="body">• OpenAI 분석 · 키워드 추출 · 시드 FAQ</text>
  </g>
  <text x="400" y="1343" class="h2" text-anchor="middle" fill="#475569">↓</text>

  <!-- STEP 5 -->
  <g transform="translate(24,1355)">
    <rect width="752" height="160" rx="12" fill="#ffffff" stroke="#cbd5e1" stroke-width="2"/>
    <rect width="752" height="44" rx="12" fill="url(#g1)"/>
    <rect y="32" width="752" height="12" fill="url(#g1)"/>
    <text x="16" y="30" class="step">⑤ 코코봇 생성 (DB 저장)</text>
    <text x="16" y="76" class="lead">실제 봇 레코드 생성</text>
    <text x="16" y="103" class="body">• POST /api/create-bot/deploy</text>
    <text x="16" y="124" class="body">• bots + personas + knowledge insert</text>
    <text x="16" y="148" class="body">• 음성 옵션 6종 선택</text>
  </g>
  <text x="400" y="1538" class="h2" text-anchor="middle" fill="#475569">↓</text>

  <!-- STEP 6 -->
  <g transform="translate(24,1550)">
    <rect width="752" height="140" rx="12" fill="#ffffff" stroke="#cbd5e1" stroke-width="2"/>
    <rect width="752" height="44" rx="12" fill="url(#g1)"/>
    <rect y="32" width="752" height="12" fill="url(#g1)"/>
    <text x="16" y="30" class="step">⑥ 아바타</text>
    <text x="16" y="76" class="lead">이미지 업로드 또는 AI 생성</text>
    <text x="16" y="103" class="body">• 사진 / 이모지 / DALL·E</text>
    <text x="16" y="127" class="body">→ bots.avatar_url</text>
  </g>
  <text x="400" y="1713" class="h2" text-anchor="middle" fill="#475569">↓</text>

  <!-- STEP 7 -->
  <g transform="translate(24,1725)">
    <rect width="752" height="125" rx="12" fill="#ffffff" stroke="#cbd5e1" stroke-width="2"/>
    <rect width="752" height="44" rx="12" fill="url(#g1)"/>
    <rect y="32" width="752" height="12" fill="url(#g1)"/>
    <text x="16" y="30" class="step">⑦ 테마</text>
    <text x="16" y="76" class="lead">대화창 색상 · 배경 · 버블 스타일</text>
    <text x="16" y="110" class="body">→ bots.theme jsonb</text>
  </g>
  <text x="400" y="1873" class="h2" text-anchor="middle" fill="#16a34a">↓</text>

  <!-- STEP 8 -->
  <g transform="translate(24,1885)">
    <rect width="752" height="170" rx="12" fill="#f0fdf4" stroke="#16a34a" stroke-width="3"/>
    <rect width="752" height="44" rx="12" fill="#16a34a"/>
    <rect y="32" width="752" height="12" fill="#16a34a"/>
    <text x="16" y="30" class="step">⑧ 배포 🎉</text>
    <text x="16" y="76" class="lead good">URL · QR · 채널</text>
    <text x="16" y="103" class="body">• cocobot.world/bot/&lt;username&gt;</text>
    <text x="16" y="124" class="body">• QR 코드 (SVG 다운로드)</text>
    <text x="16" y="148" class="body">• 웹 / 카카오 / 텔레그램 → 마이페이지</text>
  </g>

  <!-- ZOOM 헤더 -->
  <g transform="translate(24,2095)">
    <rect width="752" height="56" rx="10" fill="#0f172a"/>
    <text x="20" y="37" class="h1" fill="#ffffff">🔍 ZOOM · Step 2 페르소나</text>
  </g>

  <!-- 아바타형 -->
  <g transform="translate(24,2175)">
    <rect width="752" height="270" rx="12" fill="#fef3c7" stroke="#f59e0b" stroke-width="3"/>
    <text x="16" y="38" class="h1">아바타형</text>
    <text x="16" y="65" class="h3">— 나를 대신하는 코코봇 —</text>
    <text x="16" y="90" class="body">"내 챗봇이 나 대신 타인의 질문에 응대"</text>
    <text x="16" y="112" class="sub">isPublic = true · 호칭 기본 "고객님"</text>

    <g transform="translate(16,128)">
      <rect width="720" height="42" rx="8" fill="#ffffff" stroke="#cbd5e1" stroke-width="1.5"/>
      <text x="12" y="28" class="lead">▶ 빠른 시작 템플릿 (선택사항, 7개)</text>
    </g>

    <g transform="translate(16,188)">
      <g transform="translate(0,0)"><rect width="232" height="32" rx="6" fill="#ffffff" stroke="#cbd5e1"/><text x="116" y="22" class="pill" text-anchor="middle">🏢 기업경영자</text></g>
      <g transform="translate(244,0)"><rect width="232" height="32" rx="6" fill="#ffffff" stroke="#cbd5e1"/><text x="116" y="22" class="pill" text-anchor="middle">🍱 소상공인</text></g>
      <g transform="translate(488,0)"><rect width="232" height="32" rx="6" fill="#ffffff" stroke="#cbd5e1"/><text x="116" y="22" class="pill" text-anchor="middle">⚖️ 전문직 종사자</text></g>
      <g transform="translate(0,40)"><rect width="232" height="32" rx="6" fill="#ffffff" stroke="#cbd5e1"/><text x="116" y="22" class="pill" text-anchor="middle">🎨 프리랜서</text></g>
      <g transform="translate(244,40)"><rect width="232" height="32" rx="6" fill="#ffffff" stroke="#cbd5e1"/><text x="116" y="22" class="pill" text-anchor="middle">🗳️ 정치인</text></g>
      <g transform="translate(488,40)"><rect width="232" height="32" rx="6" fill="#ffffff" stroke="#cbd5e1"/><text x="116" y="22" class="pill" text-anchor="middle">⚙️ 기타</text></g>
    </g>
  </g>

  <!-- 도우미형 -->
  <g transform="translate(24,2470)">
    <rect width="752" height="270" rx="12" fill="#dbeafe" stroke="#3b82f6" stroke-width="3"/>
    <text x="16" y="38" class="h1">도우미형</text>
    <text x="16" y="65" class="h3">— 나를 도와주는 코코봇 —</text>
    <text x="16" y="90" class="body">"내 챗봇이 나의 업무·생활을 도움"</text>
    <text x="16" y="112" class="sub">isPublic = false · 호칭 기본 "님"</text>

    <g transform="translate(16,128)">
      <rect width="720" height="42" rx="8" fill="#ffffff" stroke="#cbd5e1" stroke-width="1.5"/>
      <text x="12" y="28" class="lead">▶ 빠른 시작 템플릿 (선택사항, 7개)</text>
    </g>

    <g transform="translate(16,188)">
      <g transform="translate(0,0)"><rect width="232" height="32" rx="6" fill="#ffffff" stroke="#cbd5e1"/><text x="116" y="22" class="pill" text-anchor="middle">💼 업무</text></g>
      <g transform="translate(244,0)"><rect width="232" height="32" rx="6" fill="#ffffff" stroke="#cbd5e1"/><text x="116" y="22" class="pill" text-anchor="middle">📚 학습</text></g>
      <g transform="translate(488,0)"><rect width="232" height="32" rx="6" fill="#ffffff" stroke="#cbd5e1"/><text x="116" y="22" class="pill" text-anchor="middle">🎨 창작</text></g>
      <g transform="translate(0,40)"><rect width="232" height="32" rx="6" fill="#ffffff" stroke="#cbd5e1"/><text x="116" y="22" class="pill" text-anchor="middle">💪 건강</text></g>
      <g transform="translate(244,40)"><rect width="232" height="32" rx="6" fill="#ffffff" stroke="#cbd5e1"/><text x="116" y="22" class="pill" text-anchor="middle">🏠 생활</text></g>
      <g transform="translate(488,40)"><rect width="232" height="32" rx="6" fill="#ffffff" stroke="#cbd5e1"/><text x="116" y="22" class="pill" text-anchor="middle">⚙️ 기타</text></g>
    </g>
  </g>

  <!-- 직접 입력 -->
  <g transform="translate(24,2765)">
    <rect width="752" height="56" rx="10" fill="#ffffff" stroke="#0f172a" stroke-width="2" stroke-dasharray="5 3"/>
    <text x="400" y="37" class="h2" text-anchor="middle">✏️ 직접 입력 (자유 분류)</text>
  </g>

  <!-- 마이페이지 -->
  <g transform="translate(24,2850)">
    <rect width="752" height="56" rx="10" fill="#0f172a"/>
    <text x="20" y="37" class="h1" fill="#ffffff">🔍 마이페이지 페르소나 추가</text>
  </g>
  <g transform="translate(24,2930)">
    <rect width="752" height="160" rx="12" fill="#ffffff" stroke="#cbd5e1" stroke-width="2"/>
    <text x="16" y="35" class="h2">한도: 아바타 5 + 도우미 5 = 10</text>
    <text x="16" y="70" class="body">• 위저드는 1개만 생성 (필수)</text>
    <text x="16" y="95" class="body">• 추가 페르소나는 마이페이지에서</text>
    <text x="16" y="120" class="body">• 각 페르소나 = 독립 URL · 독립 KB</text>
    <text x="16" y="145" class="body">• 도우미형은 isPublic=false (비공개)</text>
  </g>

  <!-- 체험하기 -->
  <g transform="translate(24,3120)">
    <rect width="752" height="150" rx="12" fill="#ecfeff" stroke="#06b6d4" stroke-width="2.5"/>
    <text x="16" y="35" class="h2">🎮 체험하기 (게스트 전용)</text>
    <text x="16" y="65" class="body">• 위저드와 별도 트랙. 로그인 없이 데모 봇 10종으로 즉시 체험</text>
    <text x="16" y="90" class="body">• 엔드포인트: /api/guest-create (IP당 시간당 20회)</text>
    <text x="16" y="115" class="body">• "체험해보고 마음에 들면 → 회원가입 → 위저드로 내 봇 만들기"</text>
    <text x="16" y="140" class="body good">→ 위저드 생성과는 분리되어 가입 전환 유도용으로만 사용</text>
  </g>
</svg>
